<svg xmlns="http://www.w3.org/2000/svg" width="200" height="200" viewBox="0 0 200 200">
  <rect width="200" height="200" fill="#f5f5f5"/>
  <rect x="40" y="40" width="50" height="50" fill="#333"/>
  <rect x="110" y="40" width="50" height="50" fill="#333"/>
  <rect x="40" y="110" width="50" height="50" fill="#333"/>
  <rect x="50" y="50" width="30" height="30" fill="#fff"/>
  <rect x="120" y="50" width="30" height="30" fill="#fff"/>
  <rect x="50" y="120" width="30" height="30" fill="#fff"/>
  <rect x="55" y="55" width="20" height="20" fill="#333"/>
  <rect x="125" y="55" width="20" height="20" fill="#333"/>
  <rect x="55" y="125" width="20" height="20" fill="#333"/>
  <rect x="110" y="110" width="10" height="10" fill="#333"/>
  <rect x="130" y="110" width="10" height="10" fill="#333"/>
  <rect x="150" y="110" width="10" height="10" fill="#333"/>
  <rect x="110" y="130" width="10" height="10" fill="#333"/>
  <rect x="130" y="130" width="10" height="10" fill="#333"/>
  <rect x="150" y="130" width="10" height="10" fill="#333"/>
  <rect x="110" y="150" width="10" height="10" fill="#333"/>
  <rect x="130" y="150" width="10" height="10" fill="#333"/>
  <rect x="150" y="150" width="10" height="10" fill="#333"/>
</svg>
