<svg xmlns="http://www.w3.org/2000/svg" viewBox="0 0 100 100" width="100" height="100">
  <rect width="100" height="100" fill="#fff"/>
  <rect x="5" y="5" width="25" height="25" fill="#1a1a1a"/>
  <rect x="10" y="10" width="15" height="15" fill="#fff"/>
  <rect x="13" y="13" width="9" height="9" fill="#1a1a1a"/>
  <rect x="70" y="5" width="25" height="25" fill="#1a1a1a"/>
  <rect x="75" y="10" width="15" height="15" fill="#fff"/>
  <rect x="78" y="13" width="9" height="9" fill="#1a1a1a"/>
  <rect x="5" y="70" width="25" height="25" fill="#1a1a1a"/>
  <rect x="10" y="75" width="15" height="15" fill="#fff"/>
  <rect x="13" y="78" width="9" height="9" fill="#1a1a1a"/>
  <rect x="35" y="5" width="5" height="5" fill="#1a1a1a"/>
  <rect x="45" y="5" width="5" height="5" fill="#1a1a1a"/>
  <rect x="55" y="5" width="5" height="5" fill="#1a1a1a"/>
  <rect x="35" y="15" width="5" height="5" fill="#1a1a1a"/>
  <rect x="50" y="15" width="5" height="5" fill="#1a1a1a"/>
  <rect x="35" y="35" width="5" height="5" fill="#1a1a1a"/>
  <rect x="45" y="35" width="5" height="5" fill="#1a1a1a"/>
  <rect x="55" y="35" width="5" height="5" fill="#1a1a1a"/>
  <rect x="65" y="35" width="5" height="5" fill="#1a1a1a"/>
  <rect x="75" y="35" width="5" height="5" fill="#1a1a1a"/>
  <rect x="85" y="35" width="5" height="5" fill="#1a1a1a"/>
  <rect x="35" y="45" width="5" height="5" fill="#1a1a1a"/>
  <rect x="55" y="45" width="5" height="5" fill="#1a1a1a"/>
  <rect x="75" y="45" width="5" height="5" fill="#1a1a1a"/>
  <rect x="5" y="55" width="5" height="5" fill="#1a1a1a"/>
  <rect x="15" y="55" width="5" height="5" fill="#1a1a1a"/>
  <rect x="35" y="55" width="5" height="5" fill="#1a1a1a"/>
  <rect x="45" y="55" width="5" height="5" fill="#1a1a1a"/>
  <rect x="55" y="55" width="5" height="5" fill="#1a1a1a"/>
  <rect x="75" y="55" width="5" height="5" fill="#1a1a1a"/>
  <rect x="85" y="55" width="5" height="5" fill="#1a1a1a"/>
  <rect x="5" y="35" width="5" height="5" fill="#1a1a1a"/>
  <rect x="15" y="35" width="5" height="5" fill="#1a1a1a"/>
  <rect x="5" y="45" width="5" height="5" fill="#1a1a1a"/>
  <rect x="15" y="45" width="5" height="5" fill="#1a1a1a"/>
  <rect x="35" y="65" width="5" height="5" fill="#1a1a1a"/>
  <rect x="45" y="65" width="5" height="5" fill="#1a1a1a"/>
  <rect x="55" y="65" width="5" height="5" fill="#1a1a1a"/>
  <rect x="70" y="70" width="10" height="10" fill="#1a1a1a"/>
  <rect x="85" y="70" width="10" height="10" fill="#1a1a1a"/>
  <rect x="70" y="85" width="10" height="10" fill="#1a1a1a"/>
  <rect x="85" y="85" width="5" height="5" fill="#1a1a1a"/>
  <rect x="35" y="75" width="5" height="5" fill="#1a1a1a"/>
  <rect x="45" y="75" width="5" height="5" fill="#1a1a1a"/>
  <rect x="55" y="75" width="5" height="5" fill="#1a1a1a"/>
  <rect x="35" y="85" width="5" height="5" fill="#1a1a1a"/>
  <rect x="50" y="85" width="5" height="5" fill="#1a1a1a"/>
  <rect x="55" y="90" width="5" height="5" fill="#1a1a1a"/>
</svg>